<?xml version="1.0" encoding="UTF-8"?>
<!DOCTYPE svg PUBLIC "-//W3C//DTD SVG 1.1//EN" "http://www.w3.org/Graphics/SVG/1.1/DTD/svg11.dtd">
<svg xmlns="http://www.w3.org/2000/svg" version="1.1" viewBox="0 0 73 73" stroke="none">
	<rect width="100%" height="100%" fill="#ffffff"/>
	<path d="M20,20h7v1h-7z M28,20h1v1h-1z M33,20h2v2h-2z M35,20h1v1h-1z M40,20h1v4h-1z M42,20h3v1h-3z M46,20h7v1h-7z M20,21h1v6h-1z M26,21h1v6h-1z M30,21h1v1h-1z M37,21h3v2h-3z M44,21h1v3h-1z M46,21h1v6h-1z M52,21h1v6h-1z M22,22h3v3h-3z M31,22h2v3h-2z M34,22h1v1h-1z M36,22h1v3h-1z M41,22h2v1h-2z M48,22h3v3h-3z M28,23h3v2h-3z M35,23h1v1h-1z M37,23h1v1h-1z M38,24h1v1h-1z M42,24h2v1h-2z M28,25h1v4h-1z M32,25h1v2h-1z M35,25h1v1h-1z M39,25h2v1h-2z M21,26h5v1h-5z M30,26h1v3h-1z M34,26h1v1h-1z M36,26h1v1h-1z M38,26h1v1h-1z M40,26h1v2h-1z M42,26h1v2h-1z M44,26h1v4h-1z M47,26h5v1h-5z M29,27h1v3h-1z M37,27h1v3h-1z M39,27h1v1h-1z M41,27h1v2h-1z M20,28h1v1h-1z M24,28h1v1h-1z M26,28h2v1h-2z M31,28h1v4h-1z M35,28h2v2h-2z M38,28h1v3h-1z M43,28h1v4h-1z M45,28h5v1h-5z M52,28h1v1h-1z M21,29h1v1h-1z M23,29h1v3h-1z M32,29h1v2h-1z M34,29h1v2h-1z M40,29h1v1h-1z M49,29h3v1h-3z M20,30h1v1h-1z M22,30h1v1h-1z M25,30h3v1h-3z M30,30h1v1h-1z M33,30h1v3h-1z M35,30h1v2h-1z M41,30h1v4h-1z M45,30h1v3h-1z M49,30h1v1h-1z M51,30h1v2h-1z M24,31h1v9h-1z M25,31h1v1h-1z M28,31h2v1h-2z M39,31h1v2h-1z M21,32h1v3h-1z M26,32h1v1h-1z M32,32h1v4h-1z M36,32h1v1h-1z M40,32h1v1h-1z M42,32h1v2h-1z M44,32h1v1h-1z M46,32h1v1h-1z M48,32h2v1h-2z M20,33h1v3h-1z M22,33h2v1h-2z M27,33h1v1h-1z M30,33h1v6h-1z M34,33h1v2h-1z M37,33h2v1h-2z M43,33h1v6h-1z M47,33h1v1h-1z M49,33h1v6h-1z M23,34h1v7h-1z M26,34h1v1h-1z M29,34h1v1h-1z M33,34h1v1h-1z M35,34h1v2h-1z M38,34h1v2h-1z M40,34h1v1h-1z M44,34h1v1h-1z M48,34h1v1h-1z M51,34h1v1h-1z M25,35h1v1h-1z M27,35h2v1h-2z M36,35h2v1h-2z M41,35h1v6h-1z M42,35h1v1h-1z M45,35h1v2h-1z M21,36h2v1h-2z M26,36h1v1h-1z M29,36h1v3h-1z M31,36h1v1h-1z M33,36h1v2h-1z M37,36h1v1h-1z M39,36h1v1h-1z M46,36h1v1h-1z M48,36h1v1h-1z M51,36h1v3h-1z M20,37h1v1h-1z M27,37h1v2h-1z M32,37h1v1h-1z M35,37h2v2h-2z M40,37h1v2h-1z M42,37h1v2h-1z M44,37h1v1h-1z M50,37h1v1h-1z M21,38h1v1h-1z M26,38h1v1h-1z M34,38h1v1h-1z M37,38h1v2h-1z M45,38h2v1h-2z M20,39h1v3h-1z M25,39h1v1h-1z M31,39h1v1h-1z M38,39h1v2h-1z M44,39h2v1h-2z M21,40h1v2h-1z M26,40h1v1h-1z M29,40h2v2h-2z M33,40h1v1h-1z M35,40h1v1h-1z M39,40h2v1h-2z M42,40h2v1h-2z M46,40h1v2h-1z M48,40h2v1h-2z M52,40h1v1h-1z M22,41h1v2h-1z M24,41h1v2h-1z M28,41h1v2h-1z M31,41h2v1h-2z M34,41h1v1h-1z M36,41h1v2h-1z M43,41h1v3h-1z M47,41h1v1h-1z M49,41h1v1h-1z M51,41h1v3h-1z M26,42h1v1h-1z M30,42h1v2h-1z M32,42h1v2h-1z M41,42h1v4h-1z M42,42h1v1h-1z M44,42h1v7h-1z M48,42h1v9h-1z M50,42h1v1h-1z M23,43h1v2h-1z M25,43h1v1h-1z M31,43h1v1h-1z M37,43h1v3h-1z M39,43h1v2h-1z M46,43h2v2h-2z M20,44h2v1h-2z M24,44h1v1h-1z M26,44h3v1h-3z M35,44h1v3h-1z M45,44h1v1h-1z M52,44h1v1h-1z M28,45h2v2h-2z M30,45h1v1h-1z M32,45h1v8h-1z M33,45h2v1h-2z M36,45h1v2h-1z M40,45h1v3h-1z M42,45h1v1h-1z M50,45h1v1h-1z M20,46h7v1h-7z M33,46h1v1h-1z M38,46h1v1h-1z M46,46h1v1h-1z M49,46h1v4h-1z M51,46h1v1h-1z M20,47h1v6h-1z M26,47h1v6h-1z M30,47h2v1h-2z M34,47h1v1h-1z M41,47h1v3h-1z M43,47h1v1h-1z M22,48h3v3h-3z M28,48h2v1h-2z M31,48h1v3h-1z M35,48h2v1h-2z M39,48h1v1h-1z M42,48h1v4h-1z M45,48h2v3h-2z M47,48h1v1h-1z M51,48h1v1h-1z M29,49h1v1h-1z M33,49h2v1h-2z M38,49h1v3h-1z M43,49h1v1h-1z M50,49h1v2h-1z M30,50h1v3h-1z M33,50h1v1h-1z M35,50h1v2h-1z M37,50h1v3h-1z M47,50h1v2h-1z M36,51h1v1h-1z M40,51h2v1h-2z M44,51h1v2h-1z M21,52h5v1h-5z M28,52h1v1h-1z M31,52h1v1h-1z M33,52h1v1h-1z M39,52h1v1h-1z M41,52h1v1h-1z M43,52h1v1h-1z M45,52h2v1h-2z M48,52h1v1h-1z M52,52h1v1h-1z" fill="#000000"/>
</svg>
